name C:\Users\u0150099\Documents\master_thesis\3dpredictsim\Results\debug\Fal_s1_mtjc2_sc_cspx10_oy2_ATx70_MTc2_MTPm_k1_d01_MTJm_nl_MG_exp5_table_d01_PF_Natali2010_ls146_ig21_wAk5e+04_wa2e+03_wpM1e+03.mot
datacolumns 128
datarows 4
range 0.00000000 0.03168054
endheader
time	pelvis_tilt	pelvis_list	pelvis_rotation	pelvis_tx	pelvis_ty	pelvis_tz	hip_flexion_l	hip_adduction_l	hip_rotation_l	hip_flexion_r	hip_adduction_r	hip_rotation_r	knee_angle_l	knee_angle_r	ankle_angle_l	ankle_angle_r	subtalar_angle_l	subtalar_angle_r	mtj_angle_l	mtj_angle_r	mtp_angle_l	mtp_angle_r	lumbar_extension	lumbar_bending	lumbar_rotation	arm_flex_l	arm_add_l	arm_rot_l	arm_flex_r	arm_add_r	arm_rot_r	elbow_flex_l	elbow_flex_r	pro_sup_l	pro_sup_r	glut_med1_l/activation	glut_med2_l/activation	glut_med3_l/activation	glut_min1_l/activation	glut_min2_l/activation	glut_min3_l/activation	semimem_l/activation	semiten_l/activation	bifemlh_l/activation	bifemsh_l/activation	sar_l/activation	add_long_l/activation	add_brev_l/activation	add_mag1_l/activation	add_mag2_l/activation	add_mag3_l/activation	tfl_l/activation	pect_l/activation	grac_l/activation	glut_max1_l/activation	glut_max2_l/activation	glut_max3_l/activation	iliacus_l/activation	psoas_l/activation	quad_fem_l/activation	gem_l/activation	peri_l/activation	rect_fem_l/activation	vas_med_l/activation	vas_int_l/activation	vas_lat_l/activation	med_gas_l/activation	lat_gas_l/activation	soleus_l/activation	tib_post_l/activation	flex_dig_l/activation	flex_hal_l/activation	tib_ant_l/activation	per_brev_l/activation	per_long_l/activation	per_tert_l/activation	ext_dig_l/activation	ext_hal_l/activation	ercspn_l/activation	intobl_l/activation	extobl_l/activation	glut_med1_r/activation	glut_med2_r/activation	glut_med3_r/activation	glut_min1_r/activation	glut_min2_r/activation	glut_min3_r/activation	semimem_r/activation	semiten_r/activation	bifemlh_r/activation	bifemsh_r/activation	sar_r/activation	add_long_r/activation	add_brev_r/activation	add_mag1_r/activation	add_mag2_r/activation	add_mag3_r/activation	tfl_r/activation	pect_r/activation	grac_r/activation	glut_max1_r/activation	glut_max2_r/activation	glut_max3_r/activation	iliacus_r/activation	psoas_r/activation	quad_fem_r/activation	gem_r/activation	peri_r/activation	rect_fem_r/activation	vas_med_r/activation	vas_int_r/activation	vas_lat_r/activation	med_gas_r/activation	lat_gas_r/activation	soleus_r/activation	tib_post_r/activation	flex_dig_r/activation	flex_hal_r/activation	tib_ant_r/activation	per_brev_r/activation	per_long_r/activation	per_tert_r/activation	ext_dig_r/activation	ext_hal_r/activation	ercspn_r/activation	intobl_r/activation	extobl_r/activation	
          0.00000000	         -2.92716817	         -1.98382636	          2.84406071	          0.00000000	          0.90665826	         -0.00321430	        -10.71724049	          1.94457610	          5.29546509	         31.18968190	          3.48732300	         -3.91221260	        -21.00185724	        -16.61620229	          5.40131290	          9.51012618	         -1.90659246	         -2.14619076	          1.32828770	          3.22268336	         22.43157015	         -5.41740840	         -4.74611004	          0.93676746	         -1.59728176	          4.34177208	        -13.75837373	         19.22901965	         -2.56116280	        -13.48785153	          8.00992772	         34.99813417	         24.94217102	         86.51662706	         86.51662706	          0.30909795	          0.05000001	          0.05000000	          0.62155554	          0.15147706	          0.05000003	          0.05000028	          0.05000002	          0.05000001	          0.05000003	          0.05000023	          0.06057049	          0.05000035	          0.05000012	          0.05000039	          0.05000053	          0.43295769	          0.05031512	          0.05000004	          0.05000017	          0.05000010	          0.05000007	          0.22493632	          0.58562639	          0.05000000	          0.05000002	          0.05000001	          0.50329963	          0.20524401	          0.20439942	          0.17046952	          0.42278120	          0.54889325	          0.27801033	          0.44086662	          0.45552110	          0.48188171	          0.05000000	          0.07492492	          0.22690802	          0.05000000	          0.05000000	          0.11246361	          0.05000000	          0.05000000	          0.05000000	          0.05000005	          0.05659177	          0.05000018	          0.05879894	          0.05364109	          0.05000011	          0.35611938	          0.08131958	          0.08131962	          0.06201945	          0.06404820	          0.06405198	          0.09600370	          0.10960167	          0.08131828	          0.18248586	          0.05000007	          0.05000180	          0.07767370	          0.05627312	          0.06755232	          0.16949618	          0.06459206	          0.06399711	          0.17412829	          0.05002747	          0.05002031	          0.05000001	          0.05000016	          0.05000015	          0.05000008	          0.09147514	          0.05378534	          0.05000002	          0.05000041	          0.08131954	          0.08131943	          0.38852737	          0.11696646	          0.18259508	          0.23768413	          0.57465863	          0.34634394	          0.07375089	          0.09485757	          0.11246364	
          0.01056018	         -2.92971428	         -2.03894304	          3.17137247	          0.01651639	          0.90544296	         -0.00302094	        -11.72745738	          1.49972073	          5.03799620	         31.06517257	          3.63912774	         -3.80940557	        -20.79891260	        -16.67460516	          4.62492885	          9.12208790	         -0.99794244	         -2.19721829	          0.34846872	          3.27982273	         24.46112765	         -5.16296681	         -4.58151985	          1.07968888	         -1.68755263	          4.11762081	        -13.72000427	         19.34959085	         -3.27593761	        -13.46044319	          7.23591071	         36.20551879	         24.28300591	         86.51662706	         86.51662706	          0.26283775	          0.05000001	          0.05000000	          0.52853231	          0.12880671	          0.05000002	          0.05000015	          0.05000001	          0.05000001	          0.05000000	          0.05000009	          0.05354841	          0.05721290	          0.05000012	          0.05000050	          0.07652106	          0.37350859	          0.05000116	          0.05000003	          0.05000016	          0.05000009	          0.05000008	          0.19127190	          0.61588152	          0.05000000	          0.05000001	          0.05000000	          0.42797483	          0.20053745	          0.19953499	          0.16722736	          0.39793962	          0.51462713	          0.24789755	          0.37600354	          0.49949553	          0.40976241	          0.05000000	          0.06371151	          0.19294851	          0.05000000	          0.05000000	          0.09563208	          0.05000000	          0.05000000	          0.05000000	          0.09716847	          0.05000013	          0.05880015	          0.05000003	          0.05000005	          0.05826531	          0.33860355	          0.06914914	          0.06914917	          0.06914914	          0.05592812	          0.05446601	          0.14111016	          0.09319893	          0.06914815	          0.19896529	          0.05000031	          0.05001130	          0.06914914	          0.05880015	          0.05880017	          0.17629956	          0.05492517	          0.06137554	          0.25153675	          0.06244244	          0.05879885	          0.05000000	          0.05000000	          0.05000000	          0.05000000	          0.09579851	          0.05880012	          0.05123513	          0.05880010	          0.06914911	          0.06914908	          0.39805922	          0.11715926	          0.20791837	          0.20211191	          0.58640921	          0.32726858	          0.06489728	          0.10264751	          0.09563211	
          0.02112036	         -2.93008551	         -2.08928366	          3.48962895	          0.03332186	          0.90423033	         -0.00279477	        -12.64174982	          1.03795570	          4.75043846	         30.93962449	          3.79095485	         -3.68561314	        -20.75051940	        -17.40790474	          3.74645189	          8.40352685	         -0.05984233	         -2.24114391	         -0.81227622	          3.40334766	         26.74562501	         -4.93382657	         -4.40373338	          1.22108205	         -1.77529521	          3.82157100	        -13.67519403	         19.38634645	         -4.03429004	        -13.44999019	          6.64606685	         37.41960683	         23.68119728	         86.51662706	         86.51662706	          0.22350092	          0.05000001	          0.05000000	          0.44943110	          0.10952926	          0.05000005	          0.05000395	          0.05000006	          0.05000003	          0.05192657	          0.05000014	          0.05864280	          0.06726169	          0.05000006	          0.05000019	          0.06506885	          0.36429676	          0.05579640	          0.05000004	          0.05000010	          0.05000006	          0.05000005	          0.16264577	          0.53779479	          0.05000000	          0.05000003	          0.05000012	          0.36392326	          0.19279935	          0.19525182	          0.16430331	          0.37234304	          0.48918661	          0.21503273	          0.31973010	          0.42474013	          0.34843655	          0.05000000	          0.05417632	          0.16407145	          0.05000000	          0.05000000	          0.08131959	          0.05000000	          0.06914022	          0.05000000	          0.08262609	          0.05000007	          0.05000003	          0.05880003	          0.05000203	          0.05000008	          0.28792746	          0.05880014	          0.05880016	          0.05880014	          0.08131956	          0.09596289	          0.12807711	          0.15234789	          0.05879941	          0.23027401	          0.06914911	          0.05818891	          0.05880016	          0.05000006	          0.05000004	          0.20347452	          0.08131959	          0.08131959	          0.40198749	          0.08132025	          0.05000005	          0.09563206	          0.05000001	          0.19434658	          0.15172730	          0.08146111	          0.05000000	          0.05000000	          0.05000002	          0.05880013	          0.05880012	          0.46944508	          0.14740136	          0.17680107	          0.27334341	          0.65307639	          0.49505981	          0.05518463	          0.08728509	          0.08131962	
          0.03168054	         -2.92923186	         -2.14334366	          3.79751403	          0.05040653	          0.90302779	         -0.00253552	        -13.44935829	          0.55846176	          4.45043167	         30.72803947	          3.93568602	         -3.52552043	        -20.86760390	        -18.62818770	          2.73466154	          7.60406796	          0.88249342	         -2.27022522	         -2.09163362	          3.47992582	         29.17109438	         -4.65309672	         -4.21179055	          1.36583211	         -1.85718756	          3.45207404	        -13.63671352	         19.38166471	         -4.83083911	        -13.45323517	          6.22241344	         38.65911856	         23.12745820	         86.51662706	         86.51662706	          0.19005133	          0.05221531	          0.05880013	          0.38216834	          0.09313690	          0.05003006	          0.05000013	          0.05000006	          0.05000044	          0.05000001	          0.05000484	          0.08217712	          0.33818408	          0.05880020	          0.05880450	          0.13402836	          0.30977545	          0.05883628	          0.05549782	          0.05878909	          0.05879993	          0.05880019	          0.13830387	          0.53569844	          0.05880014	          0.05879580	          0.05000005	          0.30945777	          0.16394466	          0.16603009	          0.13971340	          0.34353257	          0.44259068	          0.18285049	          0.27187864	          0.36117268	          0.29628884	          0.18393618	          0.09202027	          0.13951618	          0.05000001	          0.05000000	          0.06914914	          0.05022778	          0.05879259	          0.05000000	          0.21410045	          0.05000002	          0.21968419	          0.05000003	          0.05000002	          0.05000006	          0.24483566	          0.05000000	          0.05000001	          0.05000000	          0.06914914	          0.08160092	          0.18589576	          0.12954726	          0.05000007	          0.27850275	          0.05880014	          0.06914489	          0.05000002	          0.05000004	          0.15868531	          0.27897017	          0.06914915	          0.06914914	          0.34182657	          0.06914982	          0.14155727	          0.08131957	          0.14796145	          0.20366565	          0.16515881	          0.06926948	          0.06914921	          0.06914914	          0.07056705	          0.05000000	          0.05000000	          0.54495810	          0.18591064	          0.22068658	          0.38581444	          0.67355108	          0.44671820	          0.07140784	          0.07422184	          0.06914916	
